<svg id="logo_opensea" xmlns="http://www.w3.org/2000/svg" width="41.903" height="43.121" viewBox="0 0 41.903 43.121">
  <path id="Path_97" data-name="Path 97" d="M41.9,21.561c0,11.907-9.381,21.561-20.951,21.561S0,33.467,0,21.561,9.381,0,20.951,0,41.9,9.654,41.9,21.561Z" fill="#2081e2"/>
  <path id="Path_98" data-name="Path 98" d="M24.626,39.8l.09-.146,5.45-8.774a.184.184,0,0,1,.327.024c.911,2.1,1.7,4.712,1.328,6.338A10.047,10.047,0,0,1,30.75,39.65c-.062.122-.131.241-.2.357a.184.184,0,0,1-.155.084H24.786A.192.192,0,0,1,24.626,39.8Z" transform="translate(-14.29 -17.511)" fill="#fff"/>
  <path id="Path_99" data-name="Path 99" d="M46.831,35.291V36.68a.2.2,0,0,1-.116.182,6.7,6.7,0,0,0-2.467,1.728c-1.533,2.2-2.7,5.334-5.321,5.334H28.007A7.123,7.123,0,0,1,21,36.689V36.56a.19.19,0,0,1,.187-.193h6.087a.211.211,0,0,1,.2.237,2.192,2.192,0,0,0,.217,1.2,2.137,2.137,0,0,0,1.92,1.227h3.014V36.614H29.645a.2.2,0,0,1-.155-.31c.032-.051.069-.1.108-.164.282-.412.685-1.052,1.085-1.781a14.112,14.112,0,0,0,.751-1.544c.043-.1.077-.193.112-.288.058-.168.118-.326.161-.483.043-.133.077-.272.112-.4a6.414,6.414,0,0,0,.144-1.413c0-.193-.009-.394-.026-.587-.009-.21-.034-.421-.06-.631-.017-.186-.049-.37-.084-.563-.043-.281-.1-.56-.172-.842L31.6,27.5c-.052-.193-.095-.377-.155-.569-.17-.6-.366-1.194-.573-1.746-.075-.219-.161-.43-.248-.64-.127-.317-.256-.6-.375-.877-.06-.124-.112-.237-.164-.352-.058-.131-.118-.261-.179-.385-.043-.1-.093-.184-.127-.272l-.368-.7a.123.123,0,0,1,.136-.179l2.3.642h.006s.006,0,.009,0l.3.086.334.1.123.035V21.232A1.208,1.208,0,0,1,33.808,20a1.153,1.153,0,0,1,.837.361,1.257,1.257,0,0,1,.347.871v2.091l.245.071a.194.194,0,0,1,.056.029c.06.047.146.115.256.2.086.071.179.157.291.246.222.184.486.421.777.693.077.069.153.14.222.21.375.359.794.78,1.195,1.245.112.131.222.264.334.4s.23.281.334.421c.136.186.282.379.409.58.06.1.129.193.187.288.164.255.308.518.446.782.058.122.118.255.17.385a5.751,5.751,0,0,1,.351,1.07,1.372,1.372,0,0,1,.05.237V30.2a2.084,2.084,0,0,1,.043.334,3.68,3.68,0,0,1-.06,1.105,4.118,4.118,0,0,1-.127.463c-.052.151-.1.308-.17.456a6.25,6.25,0,0,1-.463.9c-.058.106-.127.219-.2.326s-.153.219-.222.323c-.095.133-.2.272-.3.4a4.188,4.188,0,0,1-.291.377c-.144.175-.282.341-.426.5-.086.1-.179.21-.273.306s-.187.2-.273.29c-.144.148-.265.264-.366.359l-.237.224a.19.19,0,0,1-.127.049H34.992v2.421H37.3a2.123,2.123,0,0,0,1.4-.534,17.067,17.067,0,0,0,1.427-1.444A.178.178,0,0,1,40.218,37l6.374-1.9A.189.189,0,0,1,46.831,35.291Z" transform="translate(-12.201 -11.376)" fill="#fff"/>
</svg>
